<svg xmlns="http://www.w3.org/2000/svg" xmlns:xlink="http://www.w3.org/1999/xlink" width="24px" height="24px" viewBox="0 0 24 24" version="1.1">
    <title>Group 90</title>
    <g id="页面-1" stroke="none" stroke-width="1" fill="none" fill-rule="evenodd">
        <g id="02-新建会话-输入状态" transform="translate(-1134.000000, -525.000000)">
            <g id="Group-90" transform="translate(1134.000000, 525.000000)">
                <rect id="Rectangle-37-Copy-27" x="0" y="0" width="24" height="24"/>
                <g id="copy" transform="translate(4.509766, 2.000000)" fill="#009B95" fill-rule="nonzero">
                    <path d="M14.5820313,4.64453125 L10.40625,0.416015625 C10.3183594,0.328125 10.2226562,0.25390625 10.1191406,0.19140625 C10.0917969,0.17578125 10.0644531,0.16015625 10.0351562,0.146484375 C10.0175781,0.13671875 9.99804688,0.12890625 9.98046875,0.12109375 C9.8046875,0.04296875 9.61132813,0 9.4140625,0 L3.92578125,0 C3.1484375,0 2.5,0.62890625 2.5,1.40625 L2.5,2.5 L1.41601562,2.5 C0.638671875,2.5 0,3.13671875 0,3.9140625 L0,18.6015625 C0,19.3789062 0.638671875,20 1.41601562,20 L11.0839844,20 C11.8613281,20 12.4804688,19.3789062 12.4804688,18.6015625 L12.4804688,17.5 L13.59375,17.5 C14.3710938,17.5 14.9804688,16.8710938 14.9804688,16.09375 L14.9804688,5.63476562 C14.9804688,5.26367188 14.84375,4.90820312 14.5820313,4.64453125 Z M10.1367188,2.15625 L12.8085938,4.84375 L10.1367188,4.84375 L10.1367188,2.15625 Z M11.0742188,18.59375 L1.40625,18.59375 L1.40625,3.90625 L2.5,3.90625 L2.5,16.09375 C2.5,16.8710938 3.1484375,17.5 3.92578125,17.5 L11.0742188,17.5 L11.0742188,18.59375 Z M13.5742188,16.09375 L3.90625,16.09375 L3.90625,1.40625 L8.73046875,1.40625 L8.73046875,4.84375 C8.73046875,5.62109375 9.37890625,6.25 10.15625,6.25 L13.5742188,6.25 L13.5742188,16.09375 Z M10,8.203125 C10,7.81445312 9.68554688,7.5 9.296875,7.5 L5.703125,7.5 C5.31445312,7.5 5,7.81445312 5,8.203125 C5,8.59179688 5.31445312,8.90625 5.703125,8.90625 L9.296875,8.90625 C9.68554688,8.90625 10,8.59179688 10,8.203125 Z M12.5,10.703125 C12.5,10.3144531 12.1855469,10 11.796875,10 L5.703125,10 C5.31445312,10 5,10.3144531 5,10.703125 C5,11.0917969 5.31445312,11.40625 5.703125,11.40625 L11.796875,11.40625 C12.1855469,11.40625 12.5,11.0917969 12.5,10.703125 Z M11.25,13.203125 C11.25,12.8144531 10.9355469,12.5 10.546875,12.5 L5.703125,12.5 C5.31445312,12.5 5,12.8144531 5,13.203125 C5,13.5917969 5.31445312,13.90625 5.703125,13.90625 L10.546875,13.90625 C10.9355469,13.90625 11.25,13.5917969 11.25,13.203125 Z" id="Shape"/>
                </g>
            </g>
        </g>
    </g>
</svg>