<svg xmlns="http://www.w3.org/2000/svg" xmlns:xlink="http://www.w3.org/1999/xlink" width="60px" height="60px" viewBox="0 0 60 60" version="1.1">
    <title>Logo</title>
    <g id="页面-1" stroke="none" stroke-width="1" fill="none" fill-rule="evenodd">
        <g id="00-登录" transform="translate(-690.000000, -257.000000)">
            <g id="登录弹窗" transform="translate(480.000000, 201.000000)">
                <g id="Logo" transform="translate(210.000000, 56.000000)">
                    <circle id="蒙版" fill="#009B95" cx="30" cy="30" r="30"/>
                    <path d="M43.6206675,12.8571429 L26.0612746,39.342497 L30.9634602,39.3273668 L25.6813009,47.1418292 C20.9416499,47.1034366 17.7855367,47.1034366 16.2129613,47.1418292 C13.8540984,47.199418 12.3967701,44.8312194 14.6440881,41.5811231 C16.1423001,39.4143923 20.091283,33.5844355 26.4910367,24.0912527 C21.3960215,26.3606758 18.4475098,28.0586387 17.6455018,29.1851413 C16.8434938,30.3116439 17.5602907,31.3144717 19.7958927,32.1936248 C18.179136,34.4870184 17.1405631,35.9961963 16.6801741,36.7211585 C15.2227544,35.7816226 8.70762596,31.4500161 14.7813221,27.1283422 C17.6370772,25.09636 27.2501923,20.3392935 43.6206675,12.8571429 L43.6206675,12.8571429 Z M39.6194247,32.2552064 L41.0517805,32.2561164 C41.3859168,32.2564139 41.7020886,32.2567638 42.000296,32.2571663 C50.9014455,32.2691795 48.466034,46.8837662 41.6384988,47.1076269 C41.0081312,47.1282953 39.7078711,47.1398696 37.7377182,47.1423498 L35.9762948,47.1423498 C33.640746,47.1398696 30.6353046,47.1282953 26.9599705,47.1076269 L32.1667577,39.3180125 L36.4295434,39.3180125 L36.4295434,39.3180125 C37.8328596,39.3180125 38.0587296,36.6161295 36.4320419,36.6161295 L29.1716291,36.6161295 L29.1716291,36.6161295 L31.9737895,32.2571663 C32.5474523,32.2567638 33.1031506,32.2564139 33.6408844,32.2561164 L35.6960091,32.2552064 C35.8592853,32.255154 36.0205654,32.2551073 36.1798494,32.2550665 L39.2313949,32.2550665 C39.3627342,32.2551073 39.4920775,32.255154 39.6194247,32.2552064 Z" id="形状结合" fill="#FFFFFF"/>
                </g>
            </g>
        </g>
    </g>
</svg>