<svg xmlns="http://www.w3.org/2000/svg" xmlns:xlink="http://www.w3.org/1999/xlink" width="28px" height="28px" viewBox="0 0 28 28" version="1.1">
    <title>头像</title>
    <g id="页面-1" stroke="none" stroke-width="1" fill="none" fill-rule="evenodd" opacity="0.648346657">
        <g id="02-新建会话-输入状态" transform="translate(-312.000000, -195.000000)" fill="#000000">
            <g id="头像" transform="translate(312.000000, 195.001043)">
                <path d="M14,0 C21.7319865,-1.42034288e-15 28,6.2680135 28,14 C28,21.7319865 21.7319865,28 14,28 C6.2680135,28 -6.15853211e-15,21.7319865 0,14 C-9.46895252e-16,6.2680135 6.2680135,1.42034288e-15 14,0 Z M14,17.549548 C10.2996167,17.549548 6.88654062,18.7796563 4.14792424,20.8528806 C6.31608262,23.9641135 9.92028792,26 14,26 C18.0797121,26 21.6839174,23.9641135 23.8527574,20.853367 C21.1135784,18.7796992 17.7004478,17.549548 14,17.549548 Z M14,7.78239923 C11.790861,7.78239923 10,9.57326023 10,11.7823992 C10,13.9915382 11.790861,15.7823992 14,15.7823992 C16.209139,15.7823992 18,13.9915382 18,11.7823992 C18,9.57326023 16.209139,7.78239923 14,7.78239923 Z" id="形状结合"/>
            </g>
        </g>
    </g>
</svg>